<svg xmlns="http://www.w3.org/2000/svg" width="1120" height="640" viewBox="0 0 1120 640">
<rect width="100%" height="100%" fill="#f6f6f2"/>
<text x="44" y="40" font-family="Arial, sans-serif" font-size="25" font-weight="700" fill="#1a1a1a">Harder certified real-model effect</text>
<text x="44" y="64" font-family="Arial, sans-serif" font-size="13" fill="#555">Four France prompts improved; arithmetic and three geography guard answers preserved; local-only ephemeral hook.</text>
<rect x="82" y="82" width="650" height="360" fill="#fff" stroke="#d0d0c8"/>
<line x1="82" y1="82.0" x2="732" y2="82.0" stroke="#e9e9e2"/>
<text x="72" y="86.0" text-anchor="end" font-family="Arial, sans-serif" font-size="11" fill="#666">0.90</text>
<line x1="82" y1="154.0" x2="732" y2="154.0" stroke="#e9e9e2"/>
<text x="72" y="158.0" text-anchor="end" font-family="Arial, sans-serif" font-size="11" fill="#666">0.72</text>
<line x1="82" y1="226.0" x2="732" y2="226.0" stroke="#e9e9e2"/>
<text x="72" y="230.0" text-anchor="end" font-family="Arial, sans-serif" font-size="11" fill="#666">0.54</text>
<line x1="82" y1="298.0" x2="732" y2="298.0" stroke="#e9e9e2"/>
<text x="72" y="302.0" text-anchor="end" font-family="Arial, sans-serif" font-size="11" fill="#666">0.36</text>
<line x1="82" y1="370.0" x2="732" y2="370.0" stroke="#e9e9e2"/>
<text x="72" y="374.0" text-anchor="end" font-family="Arial, sans-serif" font-size="11" fill="#666">0.18</text>
<line x1="82" y1="442.0" x2="732" y2="442.0" stroke="#e9e9e2"/>
<text x="72" y="446.0" text-anchor="end" font-family="Arial, sans-serif" font-size="11" fill="#666">0.00</text>
<polyline points="115.2,440.8 148.3,342.4 181.5,339.3 214.7,337.7 247.8,286.0 281.0,289.5 314.1,286.3 347.3,284.4 413.6,279.7 480.0,229.9 546.3,229.1 612.6,221.7 678.9,123.3 732.0,120.6" fill="none" stroke="#185f8d" stroke-width="3"/>
<circle cx="115.2" cy="440.8" r="5" fill="#9b9b9b" stroke="#fff" stroke-width="1.5"/>
<circle cx="148.3" cy="342.4" r="5" fill="#9b9b9b" stroke="#fff" stroke-width="1.5"/>
<circle cx="181.5" cy="339.3" r="5" fill="#218a3b" stroke="#fff" stroke-width="1.5"/>
<circle cx="214.7" cy="337.7" r="5" fill="#218a3b" stroke="#fff" stroke-width="1.5"/>
<circle cx="247.8" cy="286.0" r="5" fill="#218a3b" stroke="#fff" stroke-width="1.5"/>
<circle cx="281.0" cy="289.5" r="5" fill="#218a3b" stroke="#fff" stroke-width="1.5"/>
<circle cx="314.1" cy="286.3" r="5" fill="#218a3b" stroke="#fff" stroke-width="1.5"/>
<circle cx="347.3" cy="284.4" r="5" fill="#218a3b" stroke="#fff" stroke-width="1.5"/>
<circle cx="413.6" cy="279.7" r="5" fill="#218a3b" stroke="#fff" stroke-width="1.5"/>
<circle cx="480.0" cy="229.9" r="5" fill="#218a3b" stroke="#fff" stroke-width="1.5"/>
<circle cx="546.3" cy="229.1" r="5" fill="#218a3b" stroke="#fff" stroke-width="1.5"/>
<circle cx="612.6" cy="221.7" r="5" fill="#218a3b" stroke="#fff" stroke-width="1.5"/>
<circle cx="678.9" cy="123.3" r="5" fill="#218a3b" stroke="#fff" stroke-width="1.5"/>
<circle cx="732.0" cy="120.6" r="5" fill="#218a3b" stroke="#fff" stroke-width="1.5"/>
<circle cx="732.0" cy="120.6" r="10" fill="none" stroke="#c43d2b" stroke-width="3"/>
<text x="407.0" y="586" text-anchor="middle" font-family="Arial, sans-serif" font-size="13" fill="#333">alpha sweep, selected alpha 0.98</text>
<text transform="translate(26 262.0) rotate(-90)" text-anchor="middle" font-family="Arial, sans-serif" font-size="13" fill="#333">mean target token log-prob delta</text>
<rect x="770" y="92" width="305" height="228" rx="6" fill="#eff5ef" stroke="#c5d4c3"/>
<text x="788" y="121" font-family="Arial, sans-serif" font-size="16" font-weight="700" fill="#1a1a1a">Official certificate</text>
<text x="788" y="150" font-family="Arial, sans-serif" font-size="12" fill="#555">Accepted</text>
<text x="1052" y="150" text-anchor="end" font-family="Arial, sans-serif" font-size="12" font-weight="700" fill="#1a1a1a">True</text>
<text x="788" y="174" font-family="Arial, sans-serif" font-size="12" fill="#555">Target delta</text>
<text x="1052" y="174" text-anchor="end" font-family="Arial, sans-serif" font-size="12" font-weight="700" fill="#1a1a1a">0.806641</text>
<text x="788" y="198" font-family="Arial, sans-serif" font-size="12" fill="#555">Off-target degradation</text>
<text x="1052" y="198" text-anchor="end" font-family="Arial, sans-serif" font-size="12" font-weight="700" fill="#1a1a1a">0</text>
<text x="788" y="222" font-family="Arial, sans-serif" font-size="12" fill="#555">Norm max</text>
<text x="1052" y="222" text-anchor="end" font-family="Arial, sans-serif" font-size="12" font-weight="700" fill="#1a1a1a">0.984835</text>
<text x="788" y="246" font-family="Arial, sans-serif" font-size="12" fill="#555">Cosine min</text>
<text x="1052" y="246" text-anchor="end" font-family="Arial, sans-serif" font-size="12" font-weight="700" fill="#1a1a1a">0.999996</text>
<text x="788" y="270" font-family="Arial, sans-serif" font-size="12" fill="#555">Rollback residue</text>
<text x="1052" y="270" text-anchor="end" font-family="Arial, sans-serif" font-size="12" font-weight="700" fill="#1a1a1a">0</text>
<text x="788" y="294" font-family="Arial, sans-serif" font-size="12" fill="#555">Weights changed</text>
<text x="1052" y="294" text-anchor="end" font-family="Arial, sans-serif" font-size="12" font-weight="700" fill="#1a1a1a">False</text>
<text x="770" y="350" font-family="Arial, sans-serif" font-size="15" font-weight="700" fill="#1a1a1a">Chosen run per-case preview</text>
<line x1="906" y1="368" x2="906" y2="560" stroke="#888"/>
<text x="770" y="392" font-family="Arial, sans-serif" font-size="11" fill="#555">france_basic</text>
<rect x="906.0" y="379" width="70.5" height="15" fill="#218a3b"/>
<text x="1056" y="392" font-family="Arial, sans-serif" font-size="11" fill="#222">0.5508</text>
<text x="770" y="414" font-family="Arial, sans-serif" font-size="11" fill="#555">france_location</text>
<rect x="906.0" y="401" width="75.0" height="15" fill="#218a3b"/>
<text x="1056" y="414" font-family="Arial, sans-serif" font-size="11" fill="#222">0.5859</text>
<text x="770" y="436" font-family="Arial, sans-serif" font-size="11" fill="#555">france_possessive</text>
<rect x="906.0" y="423" width="142.0" height="15" fill="#218a3b"/>
<text x="1056" y="436" font-family="Arial, sans-serif" font-size="11" fill="#222">1.109</text>
<text x="770" y="458" font-family="Arial, sans-serif" font-size="11" fill="#555">france_question</text>
<rect x="906.0" y="445" width="125.5" height="15" fill="#218a3b"/>
<text x="1056" y="458" font-family="Arial, sans-serif" font-size="11" fill="#222">0.9805</text>
<text x="770" y="480" font-family="Arial, sans-serif" font-size="11" fill="#555">arithmetic</text>
<rect x="906.0" y="467" width="3.2" height="15" fill="#6f7f8f"/>
<text x="1056" y="480" font-family="Arial, sans-serif" font-size="11" fill="#222">0.02539</text>
<text x="770" y="502" font-family="Arial, sans-serif" font-size="11" fill="#555">germany</text>
<rect x="906.0" y="489" width="7.0" height="15" fill="#6f7f8f"/>
<text x="1056" y="502" font-family="Arial, sans-serif" font-size="11" fill="#222">0.05469</text>
<text x="770" y="524" font-family="Arial, sans-serif" font-size="11" fill="#555">italy</text>
<rect x="906.0" y="511" width="81.0" height="15" fill="#6f7f8f"/>
<text x="1056" y="524" font-family="Arial, sans-serif" font-size="11" fill="#222">0.6328</text>
<text x="770" y="546" font-family="Arial, sans-serif" font-size="11" fill="#555">spain</text>
<rect x="906.0" y="533" width="73.0" height="15" fill="#6f7f8f"/>
<text x="1056" y="546" font-family="Arial, sans-serif" font-size="11" fill="#222">0.5703</text>
<text x="44" y="608" font-family="Arial, sans-serif" font-size="12" fill="#555">Green sweep points satisfy stricter per-case preview gates. Official packet accepted through the existing certificate path, with unchanged weights and clean rollback.</text>
</svg>