<svg xmlns="http://www.w3.org/2000/svg" width="1160" height="690" viewBox="0 0 1160 690">
<rect width="100%" height="100%" fill="#f6f6f2"/>
<text x="44" y="40" font-family="Arial, sans-serif" font-size="25" font-weight="700" fill="#1a1a1a">Envelope-pushed real-model audit</text>
<text x="44" y="64" font-family="Arial, sans-serif" font-size="13" fill="#555">Certified France/Paris steering plus guard preservation and forbidden Paris-leakage checks.</text>
<rect x="82" y="84" width="660" height="380" fill="#fff" stroke="#d0d0c8"/>
<line x1="82" y1="84.0" x2="742" y2="84.0" stroke="#e9e9e2"/>
<text x="72" y="88.0" text-anchor="end" font-family="Arial, sans-serif" font-size="11" fill="#666">0.33</text>
<line x1="82" y1="160.0" x2="742" y2="160.0" stroke="#e9e9e2"/>
<text x="72" y="164.0" text-anchor="end" font-family="Arial, sans-serif" font-size="11" fill="#666">0.27</text>
<line x1="82" y1="236.0" x2="742" y2="236.0" stroke="#e9e9e2"/>
<text x="72" y="240.0" text-anchor="end" font-family="Arial, sans-serif" font-size="11" fill="#666">0.20</text>
<line x1="82" y1="312.0" x2="742" y2="312.0" stroke="#e9e9e2"/>
<text x="72" y="316.0" text-anchor="end" font-family="Arial, sans-serif" font-size="11" fill="#666">0.13</text>
<line x1="82" y1="388.0" x2="742" y2="388.0" stroke="#e9e9e2"/>
<text x="72" y="392.0" text-anchor="end" font-family="Arial, sans-serif" font-size="11" fill="#666">0.07</text>
<line x1="82" y1="464.0" x2="742" y2="464.0" stroke="#e9e9e2"/>
<text x="72" y="468.0" text-anchor="end" font-family="Arial, sans-serif" font-size="11" fill="#666">0.00</text>
<polyline points="115.3,488.6 148.7,495.3 182.0,496.4 215.3,364.4 248.7,353.3 282.0,215.7 315.3,213.4 348.7,222.4 415.3,231.3 482.0,248.1 548.7,272.7 615.3,130.7 682.0,153.0 722.0,173.2 742.0,169.8" fill="none" stroke="#185f8d" stroke-width="3"/>
<circle cx="115.3" cy="488.6" r="5" fill="#999" stroke="#fff" stroke-width="1.5"/>
<circle cx="148.7" cy="495.3" r="5" fill="#999" stroke="#fff" stroke-width="1.5"/>
<circle cx="182.0" cy="496.4" r="5" fill="#999" stroke="#fff" stroke-width="1.5"/>
<circle cx="215.3" cy="364.4" r="5" fill="#999" stroke="#fff" stroke-width="1.5"/>
<circle cx="248.7" cy="353.3" r="5" fill="#999" stroke="#fff" stroke-width="1.5"/>
<circle cx="282.0" cy="215.7" r="5" fill="#999" stroke="#fff" stroke-width="1.5"/>
<circle cx="315.3" cy="213.4" r="5" fill="#d28a19" stroke="#fff" stroke-width="1.5"/>
<circle cx="348.7" cy="222.4" r="5" fill="#d28a19" stroke="#fff" stroke-width="1.5"/>
<circle cx="415.3" cy="231.3" r="5" fill="#d28a19" stroke="#fff" stroke-width="1.5"/>
<circle cx="482.0" cy="248.1" r="5" fill="#d28a19" stroke="#fff" stroke-width="1.5"/>
<circle cx="548.7" cy="272.7" r="5" fill="#d28a19" stroke="#fff" stroke-width="1.5"/>
<circle cx="615.3" cy="130.7" r="5" fill="#d28a19" stroke="#fff" stroke-width="1.5"/>
<circle cx="682.0" cy="153.0" r="5" fill="#d28a19" stroke="#fff" stroke-width="1.5"/>
<circle cx="722.0" cy="173.2" r="5" fill="#d28a19" stroke="#fff" stroke-width="1.5"/>
<circle cx="742.0" cy="169.8" r="5" fill="#d28a19" stroke="#fff" stroke-width="1.5"/>
<circle cx="615.3" cy="130.7" r="10" fill="none" stroke="#c43d2b" stroke-width="3"/>
<text x="412.0" y="642" text-anchor="middle" font-family="Arial, sans-serif" font-size="13" fill="#333">alpha sweep, selected alpha 0.8</text>
<text transform="translate(26 274.0) rotate(-90)" text-anchor="middle" font-family="Arial, sans-serif" font-size="13" fill="#333">mean target token log-prob delta</text>
<rect x="790" y="94" width="320" height="258" rx="6" fill="#eff5ef" stroke="#c5d4c3"/>
<text x="808" y="124" font-family="Arial, sans-serif" font-size="16" font-weight="700" fill="#1a1a1a">Official packet metrics</text>
<text x="808" y="154" font-family="Arial, sans-serif" font-size="12" fill="#555">Accepted</text>
<text x="1086" y="154" text-anchor="end" font-family="Arial, sans-serif" font-size="12" font-weight="700" fill="#1a1a1a">True</text>
<text x="808" y="178" font-family="Arial, sans-serif" font-size="12" fill="#555">Target delta</text>
<text x="1086" y="178" text-anchor="end" font-family="Arial, sans-serif" font-size="12" font-weight="700" fill="#1a1a1a">0.291016</text>
<text x="808" y="202" font-family="Arial, sans-serif" font-size="12" fill="#555">Off-target degradation</text>
<text x="1086" y="202" text-anchor="end" font-family="Arial, sans-serif" font-size="12" font-weight="700" fill="#1a1a1a">0</text>
<text x="808" y="226" font-family="Arial, sans-serif" font-size="12" fill="#555">Forbidden Paris leak max</text>
<text x="1086" y="226" text-anchor="end" font-family="Arial, sans-serif" font-size="12" font-weight="700" fill="#1a1a1a">0.421875</text>
<text x="808" y="250" font-family="Arial, sans-serif" font-size="12" fill="#555">Norm max</text>
<text x="1086" y="250" text-anchor="end" font-family="Arial, sans-serif" font-size="12" font-weight="700" fill="#1a1a1a">0.805593</text>
<text x="808" y="274" font-family="Arial, sans-serif" font-size="12" fill="#555">Cosine min</text>
<text x="1086" y="274" text-anchor="end" font-family="Arial, sans-serif" font-size="12" font-weight="700" fill="#1a1a1a">0.999997</text>
<text x="808" y="298" font-family="Arial, sans-serif" font-size="12" fill="#555">Rollback residue</text>
<text x="1086" y="298" text-anchor="end" font-family="Arial, sans-serif" font-size="12" font-weight="700" fill="#1a1a1a">0</text>
<text x="808" y="322" font-family="Arial, sans-serif" font-size="12" fill="#555">Weights changed</text>
<text x="1086" y="322" text-anchor="end" font-family="Arial, sans-serif" font-size="12" font-weight="700" fill="#1a1a1a">False</text>
<text x="790" y="390" font-family="Arial, sans-serif" font-size="15" font-weight="700" fill="#1a1a1a">Chosen run per-case deltas</text>
<line x1="932" y1="408" x2="932" y2="640" stroke="#888"/>
<text x="790" y="432" font-family="Arial, sans-serif" font-size="10.5" fill="#555">france_basic</text>
<rect x="932.0" y="419" width="73.1" height="14" fill="#218a3b"/>
<text x="1077" y="432" font-family="Arial, sans-serif" font-size="10.5" fill="#222">0.3086</text>
<text x="790" y="449" font-family="Arial, sans-serif" font-size="10.5" fill="#555">france_possessive</text>
<rect x="932.0" y="436" width="94.4" height="14" fill="#218a3b"/>
<text x="1077" y="449" font-family="Arial, sans-serif" font-size="10.5" fill="#222">0.3984</text>
<text x="790" y="466" font-family="Arial, sans-serif" font-size="10.5" fill="#555">france_location</text>
<rect x="904.2" y="453" width="27.8" height="14" fill="#218a3b"/>
<text x="1077" y="466" font-family="Arial, sans-serif" font-size="10.5" fill="#222">-0.1172</text>
<text x="790" y="483" font-family="Arial, sans-serif" font-size="10.5" fill="#555">france_question</text>
<rect x="932.0" y="470" width="136.0" height="14" fill="#218a3b"/>
<text x="1077" y="483" font-family="Arial, sans-serif" font-size="10.5" fill="#222">0.5742</text>
<text x="790" y="500" font-family="Arial, sans-serif" font-size="10.5" fill="#555">arithmetic</text>
<rect x="907.9" y="487" width="24.1" height="14" fill="#6f7f8f"/>
<text x="1077" y="500" font-family="Arial, sans-serif" font-size="10.5" fill="#222">-0.1016</text>
<text x="790" y="517" font-family="Arial, sans-serif" font-size="10.5" fill="#555">germany</text>
<rect x="887.6" y="504" width="44.4" height="14" fill="#6f7f8f"/>
<text x="1077" y="517" font-family="Arial, sans-serif" font-size="10.5" fill="#222">-0.1875</text>
<text x="790" y="534" font-family="Arial, sans-serif" font-size="10.5" fill="#555">spain</text>
<rect x="891.3" y="521" width="40.7" height="14" fill="#6f7f8f"/>
<text x="1077" y="534" font-family="Arial, sans-serif" font-size="10.5" fill="#222">-0.1719</text>
<text x="790" y="551" font-family="Arial, sans-serif" font-size="10.5" fill="#555">italy</text>
<rect x="932.0" y="538" width="100.8" height="14" fill="#6f7f8f"/>
<text x="1077" y="551" font-family="Arial, sans-serif" font-size="10.5" fill="#222">0.4258</text>
<text x="790" y="568" font-family="Arial, sans-serif" font-size="10.5" fill="#555">japan</text>
<rect x="932.0" y="555" width="91.6" height="14" fill="#6f7f8f"/>
<text x="1077" y="568" font-family="Arial, sans-serif" font-size="10.5" fill="#222">0.3867</text>
<text x="790" y="585" font-family="Arial, sans-serif" font-size="10.5" fill="#555">opposite_hot</text>
<rect x="932.0" y="572" width="70.3" height="14" fill="#6f7f8f"/>
<text x="1077" y="585" font-family="Arial, sans-serif" font-size="10.5" fill="#222">0.2969</text>
<text x="790" y="602" font-family="Arial, sans-serif" font-size="10.5" fill="#555">germany_paris_leak</text>
<rect x="932.0" y="589" width="74.0" height="14" fill="#c43d2b"/>
<text x="1077" y="602" font-family="Arial, sans-serif" font-size="10.5" fill="#222">0.3125</text>
<text x="790" y="619" font-family="Arial, sans-serif" font-size="10.5" fill="#555">spain_paris_leak</text>
<rect x="891.3" y="606" width="40.7" height="14" fill="#c43d2b"/>
<text x="1077" y="619" font-family="Arial, sans-serif" font-size="10.5" fill="#222">-0.1719</text>
<text x="790" y="636" font-family="Arial, sans-serif" font-size="10.5" fill="#555">italy_paris_leak</text>
<rect x="932.0" y="623" width="99.9" height="14" fill="#c43d2b"/>
<text x="1077" y="636" font-family="Arial, sans-serif" font-size="10.5" fill="#222">0.4219</text>
<text x="790" y="653" font-family="Arial, sans-serif" font-size="10.5" fill="#555">japan_paris_leak</text>
<rect x="904.2" y="640" width="27.8" height="14" fill="#c43d2b"/>
<text x="1077" y="653" font-family="Arial, sans-serif" font-size="10.5" fill="#222">-0.1172</text>
<text x="44" y="650" font-family="Arial, sans-serif" font-size="12" fill="#555">Green points satisfy the stricter envelope gate. Red forbidden bars should stay at or below zero, with leakage threshold 0.02.</text>
</svg>